<svg xmlns="http://www.w3.org/2000/svg" enable-background="new 0 0 68 68" viewBox="0 0 68 68" id="cash-register">
  <path fill="#010101" d="M66.8,46.4l-8.1-17.8V12.9c0-0.6-0.4-1-1-1h-3.2V2c0-0.6-0.4-1-1-1H40.2c-0.6,0-1,0.4-1,1v9.9H10.3
				c-0.6,0-1,0.4-1,1v15.6L1.1,46.6C0.9,47,1,47.5,1.4,47.8V66c0,0.6,0.4,1,1,1H66c0.6,0,1-0.4,1-1V47.1C67,46.9,67,46.7,66.8,46.4z
				 M52.6,3v16.6H41.2v-6.8c0,0,0,0,0,0s0,0,0,0V3H52.6z M39.2,13.9v6.8c0,0.6,0.4,1,1,1h13.4c0.6,0,1-0.4,1-1v-6.8h2.2v13.9H11.3
				V13.9H39.2z M10.9,29.8h46.2L64.4,46H3.5L10.9,29.8z M65,65H3.4V48H65V65z"></path>
  <path fill="#010101" d="M15.3 24.9h18.5c.6 0 1-.4 1-1v-6.6c0-.6-.4-1-1-1H15.3c-.6 0-1 .4-1 1v6.6C14.3 24.5 14.8 24.9 15.3 24.9zM16.3 18.3h16.5v4.6H16.3V18.3zM40.2 24.9h13.4c.6 0 1-.4 1-1s-.4-1-1-1H40.2c-.6 0-1 .4-1 1S39.6 24.9 40.2 24.9zM43.1 17.2h2.2c.6 0 1-.4 1-1s-.4-1-1-1h-2.2c-.6 0-1 .4-1 1S42.5 17.2 43.1 17.2zM48.5 17.2h2.2c.6 0 1-.4 1-1s-.4-1-1-1h-2.2c-.6 0-1 .4-1 1S48 17.2 48.5 17.2zM43.1 12.3h2.2c.6 0 1-.4 1-1s-.4-1-1-1h-2.2c-.6 0-1 .4-1 1S42.5 12.3 43.1 12.3zM48.5 12.3h2.2c.6 0 1-.4 1-1s-.4-1-1-1h-2.2c-.6 0-1 .4-1 1S48 12.3 48.5 12.3zM43.1 7.5h2.2c.6 0 1-.4 1-1s-.4-1-1-1h-2.2c-.6 0-1 .4-1 1S42.5 7.5 43.1 7.5zM48.5 7.5h2.2c.6 0 1-.4 1-1s-.4-1-1-1h-2.2c-.6 0-1 .4-1 1S48 7.5 48.5 7.5zM15.3 35.8h37.3c.6 0 1-.4 1-1s-.4-1-1-1H15.3c-.6 0-1 .4-1 1S14.8 35.8 15.3 35.8zM52.6 39.8H15.3c-.6 0-1 .4-1 1s.4 1 1 1h37.3c.6 0 1-.4 1-1S53.2 39.8 52.6 39.8zM19.6 60.8h29.2c.6 0 1-.4 1-1v-6.4c0-.6-.4-1-1-1H19.6c-.6 0-1 .4-1 1v6.4C18.6 60.4 19.1 60.8 19.6 60.8zM20.6 54.5h27.2v4.4H20.6V54.5z"></path>
</svg>
