<svg xmlns="http://www.w3.org/2000/svg" viewBox="0 0 24 24" id="chemical-flask">
  <polygon points="16.75 2.75 16.75 3.75 18.31 3.75 18.31 22.37 5.69 22.37 5.69 3.75 7.25 3.75 7.25 2.75 4.69 2.75 4.69 23.37 19.31 23.37 19.31 2.75 16.75 2.75"></polygon>
  <path d="M16.52,2.13h-3.02c0-.83-.67-1.5-1.5-1.5s-1.5.66-1.5,1.5h-3.02v2.37h9.05v-2.37ZM12,1.63c.28,0,.5.22.5.5h-1c0-.29.21-.5.5-.5ZM15.52,3.5h-7.05v-.37h7.05v.37Z"></path>
  <rect width="11.38" height="1" x="6.31" y="5.25"></rect>
  <rect width="7.5" height="1" x="6.48" y="7.77"></rect>
  <rect width="11.38" height="1" x="6.36" y="10.29"></rect>
  <rect width="4.25" height="1" x="13.48" y="12.81"></rect>
  <rect width="4" height="1" x="6.36" y="12.81"></rect>
  <rect width="11.38" height="1" x="6.36" y="15.33"></rect>
  <rect width="7.75" height="1" x="10.11" y="17.85"></rect>
  <rect width="11.38" height="1" x="6.36" y="20.37"></rect>
</svg>
