<svg xmlns="http://www.w3.org/2000/svg" viewBox="0 0 64 64" id="product">
  <path d="M22 34h-5c-1.1 0-2 .9-2 2s.9 2 2 2h5c1.1 0 2-.9 2-2s-.9-2-2-2zm-5-2h2c1.1 0 2-.9 2-2s-.9-2-2-2h-2c-1.1 0-2 .9-2 2s.9 2 2 2z"></path>
  <path d="M9 8.9v28.2c0 3.8 3.1 6.9 6.9 6.9h31.2c3.8 0 6.9-3.1 6.9-6.9V8.9C54 5.1 50.9 2 47.1 2H15.9C12.1 2 9 5.1 9 8.9zm41 0v28.2c0 1.6-1.3 2.9-2.9 2.9H15.9c-1.6 0-2.9-1.3-2.9-2.9V8.9C13 7.3 14.3 6 15.9 6H22v8c0 .7.4 1.3.9 1.7.6.4 1.3.4 1.9.1l7.1-3.6 7.1 3.6c.3.1.6.2.9.2.4 0 .7-.1 1.1-.3.6-.4.9-1 .9-1.7V6H47c1.7 0 3 1.3 3 2.9zM26 6h12v4.8l-5.1-2.6c-.6-.3-1.2-.3-1.8 0L26 10.8V6zM3 54c0 4.4 3.6 8 8 8h42c4.4 0 8-3.6 8-8s-3.6-8-8-8H11c-4.4 0-8 3.6-8 8zm8-4h42c2.2 0 4 1.8 4 4s-1.8 4-4 4H11c-2.2 0-4-1.8-4-4s1.8-4 4-4z"></path>
  <circle cx="11" cy="54" r="2"></circle>
  <circle cx="17" cy="54" r="2"></circle>
  <circle cx="23" cy="54" r="2"></circle>
  <circle cx="29" cy="54" r="2"></circle>
  <circle cx="35" cy="54" r="2"></circle>
  <circle cx="41" cy="54" r="2"></circle>
  <circle cx="47" cy="54" r="2"></circle>
  <circle cx="53" cy="54" r="2"></circle>
</svg>
