<svg xmlns="http://www.w3.org/2000/svg" viewBox="0 0 66 66" id="server-location">
  <path d="M8 26.3c-.2 0-.4.1-.5.2s-.2.2-.2.3c-.2.3-.1.6.2.7.2.2.6.1.7-.2.1-.1.2-.2.2-.3.2-.2.1-.6-.2-.7C8.2 26.3 8.1 26.3 8 26.3zM4.3 10.7c0 0-.1 0-.2 0-.2 0-.5.1-.5.4v.1C3.4 11.6 3.2 12 3 12.4c-.2.4-.4.9-.6 1.3 0-.1 0-.1.1-.1-.3.6-.5 1.1-.8 1.7-.1.3-.2.7-.3 1-.1.4-.2.7-.2 1.1C1.1 18 1.1 18.7 1 19.3c0 .7 0 1.4 0 2.1.1 1.2.2 2.3.4 3.4.1.6.3 1.1.4 1.7.2.7.3 1.3.6 1.9.1.3.4.5.7.5.3-.1.5-.4.4-.7-.2-.5-.3-1-.4-1.6-.1-.5-.3-.9-.4-1.4-.1-.4-.2-.9-.3-1.3S2.3 23 2.2 22.6c-.1-.8-.1-1.6-.1-2.4 0-.9 0-1.7.2-2.6.1-.4.2-.9.3-1.3.1-.5.3-.9.6-1.4 0 .1 0 .1-.1.1.3-.6.6-1.2.9-1.9.2-.4.3-.7.4-1.1.1-.2.1-.3.1-.5 0-.1 0-.1 0-.2v-.1C4.7 11.1 4.6 10.8 4.3 10.7zM33.1 3.1L33.1 3.1C33.1 3.1 33.2 3.1 33.1 3.1c.5.4.8.7 1.2 1.1.4.4.7.8 1 1.3.3.4.5.8.7 1.2.2.4.4.9.6 1.3.4 1.2.8 2.3 1.1 3.5.1.3.4.5.7.5.3-.1.5-.4.5-.7-.3-.9-.5-1.8-.8-2.7-.3-.8-.6-1.6-1-2.4s-1-1.6-1.6-2.3c-.3-.4-.7-.7-1.1-1.1-.2-.1-.3-.3-.5-.4-.1 0-.1-.1-.2-.1-.1-.1-.2-.1-.3-.1 0 0-.1 0-.2 0-.2 0-.5.2-.5.4 0 .1 0 .3 0 .4C32.9 3 33 3 33.1 3.1zM64.4 29.3L64.4 29.3c-.4 0-.6.3-.6.6-.1 1.1-.1 2.1-.1 3.2s-.1 2.2-.3 3.3c-.1.4-.2.7-.3 1.1-.1 0-.2 0-.3 0-.2 0-.5 0-.7 0-.3 0-.6 0-.9 0-.2 0-.5 0-.7.1-.3 0-.5.2-.6.5 0 .3.2.6.5.6l0 0c.3.1.6.1 1 .1s.7 0 1.1 0c.3 0 .6.1.9 0 .7-.1.9-.9 1-1.4.1-.6.2-1.2.3-1.8.1-.6.1-1.3.2-1.9.1-1.2 0-2.4.2-3.6C65 29.6 64.7 29.3 64.4 29.3zM63.3 37.4L63.3 37.4 63.3 37.4 63.3 37.4zM51.6 62.6c-.9 0-1.7 0-2.6 0-.8 0-1.5.1-2.3.1-1.6 0-3.2 0-4.7-.1-1.7-.1-3.4-.2-5.1-.3-.7 0-1.4-.1-2.1-.1-.4 0-.9 0-1.3 0-.3 0-.5 0-.8 0s-.5.2-.6.5c0 .3.2.6.5.6.1 0 .1 0 .2 0 .2 0 .4 0 .5.1.4.1.8.1 1.2.1.8 0 1.5.1 2.3.1 1.7.1 3.3.2 5 .3C43.4 64 45 64 46.5 64c.7 0 1.5 0 2.2-.1.9 0 1.8 0 2.8 0 .3 0 .6-.3.6-.6C52.2 62.9 51.9 62.6 51.6 62.6zM13.2 24.3c0 .2 0 .3 0 .5.1.4.1.9.2 1.3.1.3.1.5.2.8.1.4.3.8.5 1.2.4.8 1 1.4 1.6 2 .3.3.7.6 1.1.8.6.4 1.2.7 1.8.9.9.3 1.8.4 2.8.4.9 0 1.7-.3 2.5-.6.8-.3 1.5-.7 2.2-1.2.8-.5 1.5-1.1 2.2-1.8.3-.3.6-.6.9-.9s.6-.7.8-1c.1-.2.2-.3.3-.5.1-.2.2-.4.4-.6.1-.2.2-.4.3-.6.1-.2.2-.5.3-.7 0 .1-.1.1-.1.2.5-1.3.8-2.6 1-4 .1-1-.1-1.9-.3-2.9 0-.3-.1-.5-.2-.7 0-.1-.1-.3-.1-.4-.1-.1-.1-.3-.1-.4-.1-.3-.2-.6-.4-.8-.2-.4-.4-.7-.5-1-.2-.3-.4-.6-.7-1-.9-1.1-2-2.1-3.3-2.6-.4-.1-.7-.3-1.1-.4-.4-.1-.7-.2-1.1-.2C24 10 23.5 10 23.1 10c-.2 0-.4 0-.7 0-.7 0-1.3.2-1.9.4-.3.1-.6.2-.8.3-.4.2-.8.5-1.2.7-.2.2-.5.4-.7.5-.2.2-.4.4-.6.5-.2.2-.4.4-.6.6-.2.2-.4.5-.6.7-.4.4-.7.9-1 1.3-.3.4-.6.9-.8 1.4-.3.5-.5.9-.7 1.4-.1.3-.2.5-.3.8-.1.1-.1.3-.1.4C13 19.1 13 19.3 13 19.4c-.1.5-.3 1.1-.3 1.6 0 .3-.1.5-.1.8 0 .2 0 .3 0 .5s0 .4 0 .5c0 .3.1.5.1.8 0 .1.1.3.1.4C13.1 24.1 13.1 24.2 13.2 24.3zM14.8 19c.1-.3.2-.5.3-.8.1-.2.2-.4.3-.6.1-.3.3-.5.4-.8.1-.3.3-.5.5-.8.1-.2.3-.4.5-.7.2-.2.3-.4.5-.6.2-.2.4-.4.6-.6.4-.4.8-.7 1.2-1.1.2-.1.3-.2.5-.3.5-.3 1-.6 1.5-.8 0 0 0 0-.1 0 0 0 0 0 .1 0l0 0c0 0 .1 0 .1-.1 0 0-.1 0-.1.1.2-.1.4-.2.6-.2.3-.1.6-.2 1-.2.3 0 .6-.1.9-.1s.6 0 .9.1.7.1 1 .2c.3.1.7.2 1 .3.2.1.4.2.5.3.3.2.6.4.9.6.2.1.3.3.4.4.3.2.5.5.7.8s.4.6.6.8c.2.3.4.7.5 1 .1.2.1.4.2.5.1.2.2.5.2.7.1.2.1.5.2.8 0 .2.1.4.1.6 0 .4.1.7.1 1.1 0 .5 0 .9-.1 1.4-.1.4-.2.9-.3 1.3-.1.2-.1.4-.2.6s-.1.4-.2.6C30 23.8 30 24 29.9 24.1c-.1.2-.2.4-.3.7-.2.4-.5.8-.7 1.1-.1.2-.3.4-.4.6-.2.3-.5.5-.7.8-.4.4-.8.8-1.3 1.1-.4.3-.8.6-1.3.9-.2.1-.3.2-.5.3.4-.7.8-1.3 1.2-2 .2-.3.1-.6-.2-.8-.1-.1-.2-.1-.3-.1-.2 0-.4.1-.5.3-.4.6-.8 1.3-1.2 2-.2.3-.3.5-.4.8-.1.2-.2.3-.3.5-.4.1-.8.2-1.2.3-.5 0-1 0-1.5 0h-.1c.2-.3.4-.7.5-1 .3-.5.6-1.1.9-1.6.2-.3.1-.6-.2-.8-.1-.1-.2-.1-.3-.1-.2 0-.4.1-.5.3-.3.6-.7 1.2-1 1.7-.1.2-.3.5-.4.7-.1.1-.1.2-.2.4 0 0 0 0 0 .1-.1 0-.2 0-.3-.1-.3-.2-.6-.3-.9-.5-.1 0-.1-.1-.2-.1.2-.4.4-.8.6-1.2.3-.6.6-1.2.9-1.7.2-.3.1-.6-.2-.8-.1-.1-.2-.1-.3-.1-.2 0-.4.1-.5.3-.5.9-1 1.9-1.4 2.8-.2-.2-.5-.5-.7-.7-.3-.4-.6-.9-.8-1.3v-.1c0 0 0 0 .1-.1l0 0c.3-.5.6-1 .9-1.5.4-.7.7-1.3 1.1-2 .2-.3.1-.6-.2-.8-.1-.1-.2-.1-.3-.1-.2 0-.4.1-.5.3-.4.7-.8 1.4-1.1 2.1-.1.2-.2.4-.3.6 0-.2-.1-.4-.1-.6 0-.5-.1-1-.1-1.5 0-.3-.1-.5-.4-.6 0-.2 0-.4 0-.5.2 0 .4 0 .5-.2.2-.3.4-.6.6-.8.4-.5.8-1 1.1-1.5.2-.3.1-.6-.2-.8-.1-.1-.2-.1-.3-.1-.2 0-.4.1-.5.3-.4.5-.7 1-1.1 1.6 0 0 0 .1-.1.1 0-.2.1-.4.1-.5C14.6 19.5 14.7 19.3 14.8 19zM20.9 12L20.9 12 20.9 12zM20.9 12L20.9 12 20.9 12z"></path>
  <path d="M63.6,41.6c-0.1-0.2-0.1-0.3-0.2-0.4c-0.1-0.2-0.3-0.3-0.5-0.5c-0.1,0-0.2-0.1-0.2-0.1c-0.2-0.1-0.4-0.1-0.6-0.2   c-0.4-0.1-0.8-0.1-1.2-0.1c-1.1,0-2.3,0-3.4,0.1c-1.1,0-2.3,0.1-3.4,0.1c-1.1,0-2.2,0.1-3.2,0.1c-2.2,0-4.5-0.1-6.7-0.2   c-1.2-0.1-2.3-0.1-3.5-0.2c-1.1,0-2.2-0.1-3.2-0.1C36.4,40,35.3,40,34.2,40c-0.9,0-1.8,0-2.7,0c0.5-1,1.1-1.9,1.6-2.9   c0.2-0.3,0.3-0.7,0.5-1c0.1,0,0.1,0,0.2,0c1.1,0,2.1-0.1,3.2-0.1c1.1,0,2.1-0.1,3.2-0.1c1.1,0,2.1,0,3.2,0c1.1,0,2.1,0,3.2,0   c2.3,0.1,4.6,0.2,6.9,0.3c1,0.1,2,0.1,3.1,0.2l0,0c0,0.1,0,0.2,0,0.2c-0.2,0.8-0.2,1.6-0.3,2.4c0,0.5,0.4,0.9,0.9,0.9   s0.9-0.4,0.9-0.9s-0.1-1.1-0.2-1.6c0-0.3-0.1-0.6-0.3-0.9v-0.1c0.9,0.1,1.7,0.2,2.5,0.2c0.5,0,0.9,0.1,1.4,0c0.1,0,0.2,0,0.2,0   c0.1,0,0.3-0.1,0.4-0.2c0.2-0.1,0.3-0.3,0.4-0.5c0.2-0.3,0.2-0.7,0.2-1s0-0.6,0-0.8c0-1,0-2,0-3c0-1.1,0.1-2.2,0.1-3.3   c0-1.1,0.1-2.2,0.1-3.3c0-1.1,0-2.1-0.1-3.2s-0.2-2.2-0.5-3.2c-0.1-0.2-0.1-0.4-0.2-0.7C62,17.3,62,17.1,61.9,17   c-0.2-0.3-0.3-0.6-0.5-0.9c-0.3-0.4-0.7-0.7-1.2-0.9c-0.4-0.2-0.9-0.3-1.3-0.3c-0.2,0-0.3,0-0.5,0c-0.3,0-0.6,0-0.9,0   c-0.5,0-1.1,0-1.6,0c-1.5,0-3.1,0-4.6,0c-1.6,0-3.2,0-4.8,0s-3.1,0-4.7,0.1c-0.7,0-1.4,0-2.1,0.1c-0.4,0-0.8,0.1-1.2,0.2   c-0.3,0-0.5,0.1-0.8,0.2c0-0.2-0.1-0.3-0.1-0.5c-0.2-0.5-0.3-1-0.5-1.5c-0.2-0.6-0.5-1.1-0.7-1.7c-0.5-1-1.1-2-1.8-2.9   c-0.3-0.5-0.7-0.9-1.1-1.4c-0.3-0.4-0.7-0.8-1.1-1.2c-0.4-0.4-0.8-0.7-1.1-1c-0.4-0.3-0.9-0.6-1.4-0.9c-0.2-0.1-0.5-0.3-0.7-0.4   c-0.3-0.1-0.5-0.3-0.8-0.4c-0.5-0.2-1-0.4-1.5-0.6c-0.6-0.2-1.2-0.3-1.7-0.4c-0.6-0.1-1.1-0.2-1.7-0.2c-0.3,0-0.5,0-0.8,0   c-0.2,0-0.4,0-0.6,0s-0.5,0-0.7,0c-0.3,0-0.6,0.1-0.9,0.1c-1,0.1-2,0.3-3,0.7c-1.1,0.4-2.1,0.8-3.1,1.3s-1.9,1-2.8,1.7   C10.8,6.9,10,7.6,9.3,8.4S8,10.1,7.5,11.1s-0.9,2-1.2,3.1c-0.2,0.5-0.3,1.1-0.5,1.6c-0.2,0.6-0.3,1.1-0.4,1.7C5,18.6,5,19.7,5,20.8   c0,0.5,0,1,0,1.4c0,0.6,0.1,1.2,0.2,1.8c0.1,1.1,0.3,2.2,0.6,3.2c0.1,0.6,0.3,1.2,0.5,1.8c0.2,0.6,0.4,1.1,0.6,1.7   c0.4,1.1,0.9,2.1,1.3,3.1c0.9,1.8,1.8,3.7,2.7,5.5c0.8,1.7,1.9,3.2,2.9,4.8c-0.1,0.1-0.1,0.2-0.1,0.3s0,0.3,0,0.4   c-0.2,0.6-0.3,1.2-0.3,1.9c-0.1,0.7-0.2,1.5-0.2,2.2c-0.1,1.4-0.3,2.8-0.4,4.3c-0.1,1.3-0.3,2.7-0.4,4c0,0.3,0,0.6,0,0.9   c0,0.2,0,0.3,0,0.5c0,0.3,0,0.6,0.1,0.9c0.1,0.1,0.1,0.3,0.2,0.4c0.1,0.1,0.2,0.3,0.3,0.3c0.3,0.2,0.7,0.4,1,0.4   c0.3,0.1,0.5,0.1,0.8,0.1c0.4,0,0.7,0.1,1.1,0.1c0.2,0,0.3-0.1,0.5-0.2c0.3,0,0.5,0,0.8,0c1.2,0,2.3,0,3.5,0c2.2,0,4.4-0.1,6.6,0   c2.3,0,4.6,0.1,6.8,0.1c1.1,0,2.2,0,3.3,0c0,0,0,0.1,0.1,0.1s0.3,0,0.4-0.1c1.1,0,2.1,0,3.2,0c4.4,0.1,8.8,0.3,13.2,0.5   c1,0,2.1,0.1,3.1,0.1c0.5,0,1,0,1.6,0.1c0.3,0,0.6,0,0.9-0.1c0.1,0,0.2,0,0.2-0.1c0.1-0.1,0.3-0.1,0.4-0.2c0.1-0.1,0.2-0.2,0.4-0.3   c0.1-0.1,0.2-0.3,0.3-0.4c0.2-0.4,0.4-0.8,0.4-1.3c0.1-0.3,0.1-0.6,0.1-0.9c0.1-0.6,0.1-1.1,0.2-1.7c0.1-1.1,0.2-2.2,0.3-3.3   c0.1-1.3,0.3-2.6,0.5-4c0,0,0,0,0,0.1c0.3-2.1,0.6-4.2,0.9-6.3c0-0.3,0.1-0.6,0.1-0.9c0-0.2,0-0.4,0-0.6   C63.6,41.7,63.6,41.6,63.6,41.6z M38.6,16.6c0.5,0,0.9-0.1,1.4-0.1c0.9-0.1,1.7-0.2,2.6-0.2c1.9-0.1,3.8-0.1,5.7-0.1   c1.8,0,3.6,0.1,5.4,0.2c1.7,0.1,3.3,0.2,5,0.3c0.3,0,0.5,0.1,0.7,0.2c0.1,0,0.2,0.1,0.2,0.1c0.1,0.1,0.2,0.2,0.3,0.3   c0.1,0.2,0.3,0.4,0.4,0.6c0,0.1,0.1,0.1,0.1,0.2c0.2,0.4,0.3,0.9,0.4,1.3c0.1,0.4,0.2,0.8,0.2,1.3c0.1,0.5,0.1,1.1,0.1,1.6   c0,0.6,0,1.3,0,1.9c0,1.3-0.1,2.5-0.2,3.8c-0.1,1.2-0.2,2.5-0.3,3.7c-0.1,0.6-0.1,1.1-0.1,1.7c0,0.5,0,0.9-0.1,1.4   c-0.1,0-0.2,0-0.3,0c-1.3,0.1-2.7,0.1-4,0c0-0.2,0-0.4-0.2-0.5c-0.1-0.1-0.2-0.1-0.3-0.1c-0.2,0-0.3,0.1-0.5,0.2   c-0.1,0.1-0.1,0.1-0.2,0.2v0.1c-0.5,0-1-0.1-1.5-0.1c-1-0.1-1.9-0.2-2.9-0.2c0.2-0.2,0.4-0.4,0.6-0.5c0.2-0.2,0.2-0.6,0-0.8   c-0.1-0.1-0.3-0.2-0.4-0.2c-0.1,0-0.3,0-0.4,0.2c-0.3,0.3-0.6,0.7-0.9,1c-0.1,0.1-0.1,0.2-0.1,0.3c-0.9,0-1.7-0.1-2.6-0.1   c-0.7,0-1.4,0-2.1,0c0.2-0.2,0.4-0.3,0.6-0.5c0.5-0.4,0.9-0.9,1.4-1.3c0.2-0.2,0.2-0.6,0-0.8c-0.1-0.1-0.3-0.2-0.4-0.2   c-0.1,0-0.3,0.1-0.4,0.2c-0.4,0.4-0.8,0.8-1.2,1.2c-0.2,0.2-0.4,0.3-0.5,0.5c-0.1,0.1-0.3,0.3-0.5,0.4l0,0   c-0.1,0.1-0.2,0.2-0.2,0.3s0,0.2,0,0.3c-0.9,0-1.9-0.1-2.8-0.1c0.1-0.1,0.2-0.1,0.3-0.2c0.7-0.6,1.3-1.2,1.9-1.8   c0.2-0.2,0.2-0.6,0-0.8c-0.1-0.1-0.3-0.2-0.4-0.2c-0.1,0-0.3,0.1-0.4,0.1c-0.6,0.6-1.2,1.2-1.8,1.7c-0.3,0.2-0.5,0.5-0.7,0.7   c-0.1,0.1-0.3,0.3-0.4,0.4c-0.7,0-1.3,0-2,0c-0.4,0-0.9,0-1.3,0c0.2-0.2,0.5-0.5,0.7-0.7c0.9-0.9,1.7-1.8,2.6-2.7   c0.2-0.2,0.3-0.6,0-0.8c-0.1-0.1-0.3-0.2-0.4-0.2c-0.1,0-0.3,0-0.4,0.2c-0.9,0.9-1.7,1.8-2.6,2.7c-0.4,0.4-0.8,0.9-1.2,1.4   c0.5-1.1,1-2.1,1.4-3.2c0.1-0.4,0.3-0.7,0.4-1.1h0.1c0.1-0.1,0.2-0.2,0.3-0.4c0.2-0.2,0.4-0.4,0.6-0.6c0.4-0.5,0.8-0.9,1.3-1.4   c0.1-0.1,0.2-0.2,0.2-0.4c0-0.2-0.1-0.3-0.2-0.4c-0.1-0.1-0.3-0.2-0.4-0.2c-0.1,0-0.3,0-0.4,0.2c-0.2,0.2-0.4,0.4-0.6,0.7   c0.1-0.3,0.2-0.7,0.3-1c0.2-0.6,0.3-1.2,0.4-1.8c0.1-0.5,0.2-1,0.2-1.5c0.1-0.5,0.1-1.1,0.1-1.6s0-1.1,0-1.6c0-0.6-0.1-1.1-0.2-1.7   c-0.1-0.4-0.1-0.9-0.2-1.3C38.1,16.6,38.3,16.6,38.6,16.6z M11.8,38c0.1-0.2,0.3-0.4,0.4-0.6c0.3-0.4,0.5-0.8,0.7-1.2   c0.2-0.3,0.1-0.6-0.2-0.8c-0.1-0.1-0.2-0.1-0.3-0.1c-0.2,0-0.4,0.1-0.5,0.3c-0.2,0.4-0.4,0.7-0.7,1.1c0,0.1-0.1,0.1-0.1,0.2   c-0.3-0.6-0.6-1.2-0.9-1.7l0,0c0.1-0.3,0.3-0.5,0.5-0.8c0.3-0.4,0.5-0.8,0.7-1.2c0.2-0.3,0.1-0.6-0.2-0.8c-0.1-0.1-0.2-0.1-0.3-0.1   c-0.2,0-0.4,0.1-0.5,0.3c-0.2,0.4-0.5,0.8-0.7,1.2c0,0.1-0.1,0.1-0.1,0.2c-0.3-0.6-0.6-1.2-0.8-1.8C9,32,9.1,31.9,9.1,31.8   s0.1-0.2,0.1-0.2v0.1c0.2-0.3,0.3-0.6,0.5-1c0.1-0.1,0.1-0.3,0.1-0.4S9.7,30,9.5,29.9c-0.1-0.1-0.2-0.1-0.3-0.1H9.1   c-0.1,0-0.2,0.1-0.3,0.1c-0.1,0.1-0.1,0.2-0.2,0.2c-0.1,0.2-0.2,0.4-0.3,0.6c-0.4-1-0.8-2-1.1-3.1C7,27,6.8,26.3,6.7,25.7   c-0.1-0.3-0.1-0.6-0.2-1c-0.1-0.3-0.1-0.7-0.2-1l0,0c0-0.4-0.1-0.7-0.1-1.1c0-0.5-0.1-0.9-0.1-1.4s0-0.9,0-1.4   c0-0.4,0.1-0.7,0.1-1.1c0-0.3,0.1-0.5,0.1-0.8s0.1-0.5,0.2-0.8c0.1-0.5,0.2-0.9,0.4-1.4c0.3-1,0.6-2,1-2.9c0.3-0.5,0.5-1.1,0.8-1.6   s0.6-1.1,1-1.6c0.6-0.2,0.9-0.6,1.3-1s0.9-0.8,1.3-1.2c0.3-0.2,0.6-0.4,0.9-0.6c0.3-0.2,0.7-0.4,1-0.6c0.7-0.4,1.4-0.7,2-1   c0.3-0.1,0.7-0.3,1-0.4c0.4-0.1,0.7-0.2,1.1-0.3c0.7-0.2,1.4-0.3,2.1-0.4C21,4.1,21.6,4,22.2,4s1.1,0,1.7,0.1   c0.3,0,0.5,0.1,0.8,0.1c0.4,0.1,0.8,0.2,1.1,0.3c0.7,0.2,1.4,0.5,2,0.7c-0.1,0-0.1-0.1-0.2-0.1c0.4,0.2,0.9,0.4,1.3,0.7   c0.2,0.1,0.4,0.2,0.6,0.4c0.2,0.1,0.4,0.3,0.6,0.4c-0.1,0-0.1-0.1-0.2-0.1c0.2,0.2,0.4,0.3,0.6,0.5c0.3,0.2,0.5,0.5,0.8,0.7   c0.5,0.5,0.9,0.9,1.3,1.5c0-0.1-0.1-0.1-0.1-0.2c0.3,0.3,0.5,0.7,0.7,1s0.5,0.7,0.7,1c0.4,0.7,0.8,1.5,1.2,2.2   c0.1,0.2,0.2,0.5,0.3,0.7c0-0.1-0.1-0.1-0.1-0.2c0.3,0.7,0.5,1.3,0.7,2c0.1,0.4,0.2,0.8,0.3,1.2c0.1,0.3,0.1,0.7,0.2,1   c0,0.3,0.1,0.7,0.1,1c0,0.5,0.1,0.9,0.1,1.4c0,0.9,0,1.8-0.1,2.7c-0.1,0.6-0.2,1.1-0.3,1.7c-0.2,0.7-0.3,1.3-0.5,2   c-0.2,0.6-0.4,1.2-0.6,1.8c-0.2,0.6-0.5,1.2-0.7,1.8c-0.5,1-0.9,2.1-1.4,3.1s-1,1.9-1.5,2.8c-1,1.9-2.1,3.8-3.2,5.7   c-0.5,0.9-1.1,1.8-1.6,2.7c-0.6,1-1.2,1.9-1.9,2.9c-0.6,0.9-1.2,1.8-1.7,2.7c-0.2,0.3-0.3,0.5-0.5,0.8l-0.1-0.1   c-0.3-0.2-0.6-0.5-1-0.7c-0.1-0.1-0.3-0.2-0.4-0.3c0.1-0.2,0.3-0.5,0.4-0.7c0.3-0.5,0.5-0.9,0.7-1.3c0.5-0.9,1-1.9,1.5-2.8   c0.2-0.3,0.1-0.6-0.2-0.8c-0.1-0.1-0.2-0.1-0.3-0.1c-0.2,0-0.4,0.1-0.5,0.3c-0.5,0.9-1,1.9-1.5,2.8c-0.2,0.5-0.5,0.9-0.7,1.4   c-0.1,0.2-0.2,0.4-0.3,0.6c-0.1,0-0.1-0.1-0.2-0.1c-0.5-0.5-1-1-1.5-1.5c0.6-1.2,1.3-2.5,1.9-3.7c0.2-0.3,0.1-0.6-0.2-0.8   c-0.1-0.1-0.2-0.1-0.3-0.1c-0.2,0-0.4,0.1-0.5,0.3c-0.4,0.8-0.9,1.6-1.3,2.4c-0.2,0.3-0.3,0.7-0.5,1c-0.6-0.7-1.3-1.4-1.9-2.2   c-0.1-0.2-0.3-0.4-0.4-0.6c0-0.1,0.1-0.1,0.1-0.2c0.2-0.2,0.3-0.5,0.5-0.7c0.4-0.6,0.7-1.2,1-1.8c0.2-0.3,0.1-0.6-0.2-0.8   c-0.1-0.1-0.2-0.1-0.3-0.1c-0.2,0-0.4,0.1-0.5,0.3c-0.3,0.6-0.6,1.1-1,1.7c-0.1,0.2-0.2,0.4-0.3,0.6c-0.4-0.6-0.8-1.1-1.2-1.7   c-0.1-0.1-0.1-0.2-0.2-0.3c0.1-0.2,0.2-0.4,0.3-0.6c0.3-0.5,0.5-0.9,0.8-1.4c0.2-0.3,0.1-0.6-0.2-0.8c-0.1-0.1-0.2-0.1-0.3-0.1   c-0.2,0-0.4,0.1-0.5,0.3c-0.2,0.4-0.5,0.9-0.7,1.3c0,0.1-0.1,0.1-0.1,0.2c-0.3-0.5-0.7-1.1-1-1.6C11.9,38.2,11.9,38.1,11.8,38z    M61.6,43.9c0,0.6-0.1,1.1-0.2,1.7c-0.1,1.2-0.3,2.5-0.4,3.7c-0.1,1.2-0.3,2.4-0.4,3.6c-0.1,1.2-0.3,2.5-0.4,3.7   c-0.1,0.9-0.3,1.8-0.6,2.7c0,0.1-0.1,0.2-0.1,0.2s0,0-0.1,0.1c-0.1,0-0.2,0.1-0.3,0.1c-1,0.1-1.9,0.1-2.9,0.1c-1.1,0-2.2,0-3.3,0   c-2.1,0-4.3,0-6.4-0.1c-1.4,0-2.8,0-4.2-0.1c0.1,0,0.2,0,0.2-0.1c0.1-0.2,0.3-0.3,0.5-0.5c0.3-0.3,0.6-0.6,0.9-0.9   c0.2-0.2,0.3-0.6,0-0.8c-0.1-0.1-0.3-0.2-0.4-0.2c-0.1,0-0.3,0-0.4,0.2c-0.3,0.3-0.6,0.6-0.8,0.9c-0.1,0.1-0.2,0.2-0.3,0.3   s-0.1,0.1-0.2,0.2c-0.1,0.1-0.2,0.2-0.2,0.4c0,0.1,0.1,0.3,0.1,0.4c0.1,0.1,0.1,0.1,0.2,0.1c-0.8,0-1.5,0-2.3,0c-0.3,0-0.6,0-1,0   l0.1-0.1c0-0.2-0.1-0.3-0.2-0.4c-0.1-0.1-0.2-0.2-0.4-0.2l0,0c-0.2,0-0.4,0.1-0.5,0.3c-0.1,0.1-0.2,0.3-0.3,0.4c-1.3,0-2.6,0-3.9,0   c0.4-0.5,0.9-1,1.3-1.4c0.2-0.2,0.3-0.6,0-0.8c-0.1-0.1-0.3-0.2-0.4-0.2c-0.1,0-0.3,0-0.4,0.2c-0.4,0.4-0.8,0.9-1.2,1.4   c-0.2,0.2-0.4,0.5-0.5,0.7c-0.1,0.1-0.1,0.2-0.2,0.2c-0.9,0-1.8,0-2.7,0c0.5-0.6,1-1.1,1.5-1.7c0.2-0.2,0.3-0.6,0-0.8   c-0.1-0.1-0.3-0.2-0.4-0.2s-0.3,0-0.4,0.2c-0.5,0.5-0.9,1.1-1.4,1.6c-0.2,0.2-0.3,0.4-0.5,0.7c-0.1,0.1-0.1,0.2-0.2,0.3   c-1.4,0-2.8,0-4.2,0c0.2-0.2,0.5-0.4,0.7-0.6c0.6-0.5,1.1-1,1.6-1.5c0.2-0.2,0.3-0.6,0-0.8c-0.1-0.1-0.3-0.2-0.4-0.2   s-0.3,0-0.4,0.2c-0.5,0.5-1,1-1.6,1.6c-0.4,0.4-0.7,0.7-1.1,1c-0.1,0.1-0.2,0.3-0.2,0.4c-1.1,0-2.3,0-3.4,0c0.4-0.3,0.7-0.7,1.1-1   c0.6-0.6,1.1-1.1,1.7-1.7c0.2-0.2,0.2-0.6,0-0.8c-0.1-0.1-0.3-0.2-0.4-0.2s-0.3,0.1-0.4,0.2c-0.6,0.6-1.2,1.2-1.8,1.8   c-0.2,0.3-0.5,0.5-0.7,0.8c-0.1,0.1-0.2,0.3-0.4,0.4c-0.1,0.1-0.2,0.2-0.3,0.3c-0.1,0.1-0.1,0.2,0,0.3c-0.5,0-1,0-1.5,0   c-0.1-0.1-0.2-0.2-0.4-0.2c-0.4-0.1-0.7-0.2-1.1-0.3c0.2-0.2,0.5-0.5,0.7-0.7c0.6-0.6,1.2-1.3,1.8-1.9c0.2-0.2,0.3-0.6,0-0.8   c-0.1-0.1-0.3-0.2-0.4-0.2s-0.3,0-0.4,0.2c-0.6,0.6-1.1,1.3-1.7,1.9c-0.2,0.3-0.5,0.5-0.7,0.8c0-0.3,0-0.7,0-1c0-0.5,0-0.9,0.1-1.4   c0.1-0.1,0.1-0.1,0.2-0.2l0,0c0.9-1.1,1.8-2.2,2.6-3.3c0.2-0.2,0.1-0.6-0.2-0.8C16.6,52,16.5,52,16.4,52c-0.2,0-0.4,0.1-0.5,0.3   c-0.5,0.6-1,1.3-1.5,1.9c-0.1,0.1-0.2,0.2-0.2,0.3c0.1-0.8,0.1-1.7,0.2-2.5c0-0.4,0-0.9,0.1-1.3c0.2-0.3,0.4-0.5,0.5-0.8   c0.3-0.5,0.7-0.9,1-1.3c0.2-0.2,0.1-0.6-0.2-0.8c-0.1-0.1-0.2-0.1-0.3-0.1h-0.1c-0.2,0-0.3,0.1-0.3,0.3c-0.2,0.2-0.3,0.4-0.5,0.6   c0-0.1,0-0.2,0-0.3c0-0.7,0-1.3,0-2c0-0.2,0-0.3,0-0.5c0.3,0.4,0.6,0.8,0.9,1.2c0.6,0.8,1.2,1.5,1.8,2.2s1.3,1.3,2,1.9   c0.8,0.7,1.6,1.3,2.4,1.9c0.1,0,0.1,0.1,0.2,0.1c0,0.1-0.1,0.2-0.2,0.3l0,0c-0.2,0.3-0.1,0.6,0.2,0.7c0.3,0.2,0.6,0.1,0.7-0.2   c0.1-0.1,0.1-0.2,0.2-0.3c0.3-0.3,0.7-0.7,0.9-1.1c0.3-0.5,0.6-0.9,0.9-1.4c0.6-0.9,1.2-1.9,1.8-2.8c1.2-1.8,2.3-3.7,3.4-5.5   c0.2-0.3,0.3-0.5,0.5-0.8c0.1,0.1,0.3,0.2,0.5,0.2c2.1,0,4.1,0,6.2,0c2.2,0,4.3,0.1,6.5,0.2c4.4,0.2,8.8,0.1,13.2,0   c1.5,0,3-0.1,4.5,0.1c0.2,0,0.3,0.1,0.4,0.1C61.7,42.8,61.7,43.3,61.6,43.9z"></path>
  <path d="M49.6,27.9c0.1,0.2,0.2,0.3,0.3,0.5s0.2,0.3,0.4,0.4c0.1,0,0.1,0.1,0.2,0.1c0.2,0.2,0.4,0.3,0.6,0.4   c0.3,0.2,0.8,0.3,1.1,0.3c0.2,0,0.5,0,0.7,0s0.4-0.1,0.6-0.1c0.2-0.1,0.4-0.2,0.6-0.2c0.2-0.1,0.3-0.2,0.5-0.3   c0.3-0.2,0.5-0.5,0.7-0.7c0.4-0.5,0.6-1,0.7-1.5c0-0.1,0-0.3,0.1-0.4c0-0.3,0-0.5,0-0.8c0-0.2-0.1-0.4-0.1-0.6   c0-0.1-0.1-0.2-0.1-0.3c-0.1-0.2-0.1-0.3-0.3-0.5c-0.2-0.3-0.5-0.5-0.8-0.7c-0.2-0.1-0.3-0.1-0.5-0.2c-0.1,0-0.2,0-0.2,0   c-0.1,0-0.3,0-0.4,0c-0.1,0-0.2,0-0.2,0c-0.2,0-0.4,0.1-0.6,0.1c-0.2,0.1-0.3,0.1-0.5,0.2c-0.1,0.1-0.3,0.2-0.4,0.3   c-0.1,0.1-0.2,0.2-0.3,0.4c-0.1,0.1-0.2,0.2-0.3,0.3c-0.2,0.2-0.1,0.6,0.2,0.7c0.2,0.1,0.5,0.1,0.7-0.2l0,0c0.3,0,0.6-0.1,0.9-0.1   c0.2,0,0.3,0,0.5,0c0.1,0,0.2,0,0.3,0.1c0.1,0,0.1,0.1,0.2,0.1l0.1,0.1c0.1,0.1,0.1,0.2,0.1,0.3c0,0.1,0,0.2,0.1,0.3   c0,0.1,0,0.3,0,0.4c0,0.2-0.1,0.4-0.2,0.6c-0.1,0.2-0.2,0.3-0.3,0.5c-0.1,0.1-0.2,0.3-0.4,0.4c-0.1,0.1-0.2,0.1-0.3,0.2   c-0.2,0.1-0.3,0.1-0.5,0.2c-0.1,0-0.3,0-0.4,0c-0.2,0-0.3-0.1-0.5-0.1c-0.1-0.1-0.2-0.1-0.3-0.2s-0.1-0.1-0.2-0.2   c-0.1-0.1-0.1-0.2-0.1-0.3c0-0.1,0-0.2-0.1-0.2c0-0.1,0-0.3,0-0.4s0.1-0.2,0.1-0.3c0-0.1,0.1-0.1,0.1-0.2c0.1-0.2,0.1-0.4,0.1-0.6   c-0.1-0.2-0.2-0.4-0.4-0.5c-0.4-0.2-0.9-0.1-1.1,0.3c-0.1,0.1-0.1,0.3-0.2,0.4c-0.1,0.2-0.2,0.4-0.2,0.6s-0.1,0.4-0.1,0.6   s0,0.4,0,0.6C49.4,27.5,49.4,27.7,49.6,27.9z M53.8,24.8C53.9,24.8,53.9,24.8,53.8,24.8C53.9,24.8,53.9,24.8,53.8,24.8   C53.9,24.8,53.9,24.8,53.8,24.8z M54,24.9L54,24.9c-0.1-0.1-0.1-0.1-0.1-0.1l0,0C53.9,24.8,54,24.8,54,24.9   C54,24.8,54,24.8,54,24.9C54,24.8,54,24.8,54,24.9L54,24.9L54,24.9L54,24.9L54,24.9z M51.3,27.5L51.3,27.5L51.3,27.5L51.3,27.5z    M51.3,27.5L51.3,27.5C51.3,27.5,51.3,27.4,51.3,27.5C51.3,27.4,51.3,27.5,51.3,27.5z M51,27L51,27L51,27L51,27z"></path>
  <polygon points="54 24.9 54 24.9 54 24.9"></polygon>
  <path d="M54.3,49.3c-0.1-0.2-0.2-0.4-0.3-0.5c-0.2-0.3-0.4-0.5-0.7-0.7c-0.5-0.4-1.2-0.7-1.8-0.7c-0.4,0-0.8,0.1-1.2,0.2   c-0.2,0.1-0.4,0.2-0.6,0.3c-0.1,0.1-0.2,0.2-0.3,0.3s-0.3,0.3-0.4,0.5c-0.1,0.1-0.2,0.1-0.2,0.2c-0.2,0.2-0.2,0.4-0.1,0.6l0,0   c-0.2-0.1-0.4-0.1-0.7-0.1c-0.2,0.1-0.4,0.2-0.5,0.4c-0.1,0.1-0.1,0.3-0.2,0.4c-0.1,0.3-0.2,0.6-0.3,1c0,0.2-0.1,0.4-0.1,0.6   c0,0.3,0.1,0.6,0.1,0.9c0.1,0.2,0.1,0.4,0.2,0.6c0.1,0.3,0.3,0.5,0.4,0.8c0.2,0.2,0.4,0.4,0.6,0.6c0.2,0.2,0.4,0.3,0.6,0.4   c0.2,0.1,0.3,0.1,0.5,0.1c0.1,0,0.2,0,0.3,0c0.2,0,0.4-0.1,0.6-0.1c0.2-0.1,0.4-0.1,0.6-0.2c0.2-0.1,0.4-0.2,0.6-0.3   c0.6-0.4,1.2-1,1.7-1.5c0.5-0.6,1-1.3,1.2-2.1c0-0.1,0.1-0.3,0.1-0.4c0-0.1,0-0.3,0-0.4c0-0.2-0.1-0.4-0.1-0.6   C54.3,49.5,54.3,49.4,54.3,49.3z M52.1,49.4L52.1,49.4C52.2,49.4,52.2,49.4,52.1,49.4C52.2,49.4,52.2,49.4,52.1,49.4   c0.1,0.1,0.1,0.1,0.2,0.1C52.2,49.4,52.2,49.4,52.1,49.4L52.1,49.4C52,49.3,52.1,49.4,52.1,49.4L52.1,49.4z M49.5,53.5L49.5,53.5   L49.5,53.5L49.5,53.5z M49.6,53.5C49.5,53.5,49.5,53.5,49.6,53.5C49.5,53.5,49.5,53.5,49.6,53.5C49.5,53.5,49.5,53.5,49.6,53.5   L49.6,53.5z M49.6,53.5L49.6,53.5L49.6,53.5L49.6,53.5z M52.8,50.6c0,0.2-0.1,0.3-0.2,0.5c-0.1,0.3-0.3,0.5-0.5,0.8   c-0.2,0.2-0.4,0.5-0.7,0.7c-0.1,0.1-0.2,0.2-0.3,0.2c-0.3,0.2-0.6,0.4-0.9,0.6l0,0c-0.2,0.1-0.4,0.1-0.5,0.1c0,0,0,0-0.1,0h-0.1   c-0.1,0-0.1-0.1-0.2-0.1c-0.1-0.1-0.1-0.1-0.2-0.2c-0.1-0.1-0.2-0.2-0.2-0.4c0-0.1-0.1-0.2-0.1-0.3s-0.1-0.3-0.1-0.4   c0-0.2,0-0.4,0-0.6c0-0.2,0.1-0.4,0.1-0.6c0.1-0.1,0.1-0.3,0.1-0.4c0.1-0.2,0-0.5-0.1-0.7c0.2,0.1,0.4,0.1,0.6-0.1l0,0l0,0l0,0   c0,0,0,0,0.1,0l0,0l0,0l0,0c0.5-0.1,1-0.3,1.5-0.4c0.1,0,0.3,0,0.4,0c0.1,0,0.2,0,0.4,0.1c0.1,0.1,0.2,0.1,0.3,0.2   c0.1,0.1,0.2,0.2,0.3,0.3s0.1,0.3,0.2,0.4c0,0.1,0,0.1,0,0.2C52.8,50.4,52.8,50.5,52.8,50.6z"></path>
  <path d="M49.7,49.7C49.6,49.7,49.6,49.7,49.7,49.7C49.7,49.7,49.7,49.6,49.7,49.7C49.7,49.6,49.7,49.7,49.7,49.7z"></path>
  <circle cx="52.2" cy="49.4" r="0"></circle>
</svg>
