<svg xmlns="http://www.w3.org/2000/svg" xml:space="preserve" viewBox="0 0 100 100" id="supplier">
  <path d="M89.55 44.46a6.6 6.6 0 0 0-4.63-1.92c-1.74 0-3.38.68-4.63 1.92l-2.74 2.74V17.07c0-2.5-2.03-4.53-4.53-4.53H33.07c-2.5 0-4.53 2.03-4.53 4.53v31.95c0 .81.23 1.56.6 2.22-2.4.77-4.61 2.1-6.44 3.93l-4.26 4.26c-1.43-.81-3.36-.64-4.55.55l-4.91 4.91a1.49 1.49 0 0 0 0 2.12c.59.59 1.54.59 2.12 0l4.91-4.91a.744.744 0 0 1 1.06 0l16.82 16.82c.29.29.29.77 0 1.06l-4.91 4.91a1.49 1.49 0 0 0 0 2.12c.29.29.68.44 1.06.44s.77-.15 1.06-.44l4.91-4.91c1.24-1.24 1.41-3.12.56-4.56l1.14-1.14c.62-.62 1.43-.95 2.3-.95h22.07c4.19 0 8.26-1.73 11.16-4.76l16.38-17.06c2.47-2.54 2.43-6.66-.07-9.17m-22.98 9.08h4.64l-3.67 3.67c0-.09.01-.17.01-.26 0-1.25-.37-2.41-.98-3.41m-10.02-38v9.38l-2.56-2.05c-.27-.22-.61-.33-.94-.33s-.66.11-.94.33l-2.56 2.05v-9.38zm-25 33.48V17.07c0-.84.68-1.53 1.53-1.53h13.47v12.5c0 .58.33 1.1.85 1.35s1.14.18 1.59-.18l4.06-3.25 4.06 3.25c.27.22.6.33.94.33a1.506 1.506 0 0 0 1.5-1.5v-12.5h13.47c.84 0 1.53.68 1.53 1.53v31.95c0 .84-.68 1.53-1.53 1.53H62.08a7 7 0 0 0-1.03-.09H34.09c-.43 0-.86.03-1.29.06-.71-.13-1.25-.75-1.25-1.5m55.92 2.54L71.09 68.62a12.53 12.53 0 0 1-9 3.84H40.02c-1.67 0-3.24.65-4.43 1.83l-1.05 1.05-13.87-13.89 4.16-4.16c2.17-2.17 4.96-3.48 7.97-3.77.09.01.18.03.27.03h28.74c1.56.35 2.74 1.74 2.74 3.41 0 1.85-1.44 3.35-3.26 3.48-.16.01-.33.02-.49.02H46.05c-.83 0-1.5.67-1.5 1.5s.67 1.5 1.5 1.5h15c.26 0 .52-.02.77-.05 2.67-.24 5.16-1.39 7.08-3.31l13.5-13.51c.68-.67 1.57-1.05 2.52-1.05.93 0 1.85.38 2.51 1.04 1.35 1.36 1.38 3.59.04 4.98m-50.92-7.52c0-.83.67-1.5 1.5-1.5h4c.83 0 1.5.67 1.5 1.5s-.67 1.5-1.5 1.5h-4c-.83 0-1.5-.67-1.5-1.5m0-6c0-.83.67-1.5 1.5-1.5h8c.83 0 1.5.67 1.5 1.5s-.67 1.5-1.5 1.5h-8c-.83 0-1.5-.67-1.5-1.5"></path>
</svg>
